# Blender v2.77 (sub 0) OBJ File: 'spaceship - Copy.blend'
# www.blender.org
mtllib pixelspaceship.mtl
o Cube
v -2.300286 2.863384 1.061600
v -2.322679 2.863384 -1.151909
v -2.464495 1.530295 -3.503679
v 2.293736 2.863384 -1.151271
v 2.269581 2.863384 1.075347
v -2.484843 1.523643 3.464419
v -2.276517 2.877114 1.073314
v -2.326383 3.710656 1.064957
v -2.312789 2.870800 -1.151960
v -2.323729 3.696819 -1.153193
v 2.259835 2.867400 1.055608
v 2.290972 3.710656 1.063754
v 2.291491 2.870674 -1.144061
v 2.287307 3.710656 -1.147678
v 4.008880 2.879148 -0.758340
v 3.999271 2.879148 0.693643
v 2.289457 3.024655 -1.142291
v -2.320451 3.024655 -1.142291
v -2.287877 3.043558 1.048755
v 2.260030 3.022941 1.058364
v -2.602162 3.703977 0.010975
v 2.288527 3.703977 -0.049926
v -1.948745 5.785177 0.001366
v -2.621380 5.785177 -0.008243
v -2.592553 3.703977 0.241593
v -2.592553 3.698891 -0.258079
v 2.290023 3.708256 0.115986
v 2.293565 3.719379 -0.166026
v -2.360536 3.637342 -0.041418
v -2.358822 3.632043 0.122442
v -2.357173 3.613748 0.280165
v -2.355654 3.583160 0.425691
v -2.354322 3.541456 0.553426
v -2.353229 3.490236 0.658464
v -2.352417 3.431471 0.736765
v -2.351917 3.367418 0.785323
v -2.351748 3.300539 0.802270
v -2.351917 3.233403 0.786955
v -2.352417 3.168591 0.739968
v -2.353229 3.108594 0.663113
v -2.354322 3.055717 0.559343
v -2.355654 3.011992 0.432648
v -2.357173 2.979100 0.287895
v -2.358822 2.958305 0.130648
v -2.360536 2.950405 -0.033050
v -2.362250 2.955704 -0.196910
v -2.363899 2.973999 -0.354633
v -2.365418 3.004587 -0.500159
v -2.366750 3.046292 -0.627895
v -2.367843 3.097511 -0.732931
v -2.368655 3.156276 -0.811233
v -2.369155 3.220330 -0.859791
v -2.369324 3.287209 -0.876738
v -2.369155 3.354345 -0.861423
v -2.368655 3.419157 -0.814435
v -2.367843 3.479153 -0.737580
v -2.366750 3.532030 -0.633811
v -2.365418 3.575755 -0.507115
v -2.363899 3.608647 -0.362362
v -2.362250 3.629443 -0.205115
vt 0.5557 0.0000
vt 0.5557 0.4537
vt 0.3743 0.3408
vt 0.1878 0.4420
vt 0.1878 0.8318
vt 0.0000 0.8298
vt 0.0011 0.4439
vt 0.7208 0.0000
vt 0.7208 0.4433
vt 0.5557 0.0900
vt 0.8148 0.9995
vt 0.8154 0.8122
vt 0.8853 0.8121
vt 0.8853 1.0000
vt 0.9766 0.0000
vt 0.9766 0.3839
vt 0.9054 0.3840
vt 0.9066 0.0006
vt 0.8148 0.8121
vt 0.8148 0.9988
vt 0.7433 0.9981
vt 0.7436 0.8124
vt 0.9697 0.4433
vt 0.9697 0.8280
vt 0.8991 0.8239
vt 0.8983 0.4457
vt 0.5557 0.4467
vt 0.7433 0.4433
vt 0.7433 0.8320
vt 0.5578 0.8297
vt 0.9054 0.3903
vt 0.7216 0.3845
vt 0.7208 0.0000
vt 0.9054 0.0051
vt 0.8983 0.6266
vt 0.7443 0.5873
vt 0.7433 0.4670
vt 0.8983 0.4433
vt 0.8902 0.8121
vt 0.7444 0.7814
vt 0.7433 0.6594
vt 0.8902 0.6266
vt 0.0718 0.8318
vt 0.0718 0.9801
vt 0.0000 0.9799
vt 0.9640 0.9912
vt 0.8983 0.9622
vt 0.9640 0.8280
vt 0.1919 0.4420
vt 0.0000 0.3336
vt 0.1919 0.0000
vt 0.9829 0.4433
vt 0.9829 0.8901
vt 0.9697 0.8865
vt 0.9889 0.0080
vt 1.0000 0.0000
vt 1.0000 0.2361
vt 0.3743 0.4543
vt 0.1919 0.3382
vt 0.3743 0.0000
vt 0.9766 0.2319
vt 0.9889 0.0000
vt 0.9889 0.2409
vt 0.9960 0.8900
vt 0.9829 0.4466
vt 0.9960 0.4433
vt 0.1919 0.8628
vt 0.1920 0.8067
vt 0.3684 0.4543
vt 0.3684 0.8572
vt 0.3682 0.8613
vt 0.5509 0.8626
vt 0.3744 0.5096
vt 0.3743 0.4537
vt 0.5506 0.4551
vt 0.5509 0.4596
vt 0.1299 0.8900
vt 0.1299 0.9039
vt 0.1288 0.9177
vt 0.1266 0.9309
vt 0.1234 0.9430
vt 0.1194 0.9536
vt 0.1146 0.9622
vt 0.1093 0.9685
vt 0.1037 0.9723
vt 0.0980 0.9734
vt 0.0924 0.9718
vt 0.0871 0.9675
vt 0.0823 0.9607
vt 0.0783 0.9517
vt 0.0751 0.9409
vt 0.0729 0.9285
vt 0.0718 0.9151
vt 0.0718 0.9013
vt 0.0729 0.8875
vt 0.0751 0.8743
vt 0.0783 0.8622
vt 0.0823 0.8516
vt 0.0871 0.8430
vt 0.0924 0.8367
vt 0.0980 0.8329
vt 0.1037 0.8318
vt 0.1093 0.8334
vt 0.1146 0.8376
vt 0.1194 0.8444
vt 0.1234 0.8534
vt 0.1266 0.8643
vt 0.1288 0.8767
vn 0.0015 -0.8735 -0.4869
vn 0.0000 -1.0000 0.0000
vn -0.0001 -0.8700 0.4931
vn -0.9993 -0.0366 0.0077
vn 0.0015 -0.0029 -1.0000
vn 0.9999 -0.0160 0.0063
vn 0.0021 0.0001 1.0000
vn -0.0011 -1.0000 0.0007
vn -0.0015 1.0000 -0.0031
vn 0.4363 0.8998 0.0007
vn 0.0080 -1.0000 0.0012
vn 0.2233 0.0058 -0.9747
vn 0.2154 0.0079 0.9765
vn 0.0000 0.8450 -0.5347
vn 0.4284 0.0616 -0.9015
vn -0.9985 0.0106 0.0542
vn -0.0027 -0.8463 -0.5327
vn -0.9970 0.0658 -0.0399
vn 0.4183 0.1209 0.9002
vn -0.0092 -0.0987 -0.9951
vn 0.0092 -0.1109 0.9938
vn -0.9999 0.0001 0.0105
usemtl spaceship
s off
f 5/1/1 6/2/1 1/3/1
f 2/4/2 4/5/2 5/6/2 1/7/2
f 3/8/3 4/9/3 2/10/3
f 8/11/4 10/12/4 9/13/4 7/14/4
f 10/15/5 14/16/5 13/17/5 9/18/5
f 14/19/6 12/20/6 11/21/6 13/22/6
f 12/23/7 8/24/7 7/25/7 11/26/7
f 7/27/8 9/28/8 13/29/8 11/30/8
f 12/31/9 14/32/9 10/33/9 8/34/9
f 12/35/10 16/36/10 15/37/10 14/38/10
f 4/39/11 15/40/11 16/41/11 11/42/11
f 15/43/12 4/44/12 14/45/12
f 12/46/13 5/47/13 16/48/13
f 3/49/14 18/50/14 17/51/14
f 3/52/15 17/53/15 4/54/15
f 2/55/16 18/56/16 3/57/16
f 6/58/17 19/59/17 20/60/17
f 1/61/18 6/62/18 19/63/18
f 6/64/19 5/65/19 20/66/19
f 24/67/20 23/68/20 22/69/20 25/70/20 21/71/20
f 22/72/21 23/73/21 24/74/21 21/75/21 26/76/21
f 30/77/22 29/78/22 60/79/22 59/80/22 58/81/22 57/82/22 56/83/22 55/84/22 54/85/22 53/86/22 52/87/22 51/88/22 50/89/22 49/90/22 48/91/22 47/92/22 46/93/22 45/94/22 44/95/22 43/96/22 42/97/22 41/98/22 40/99/22 39/100/22 38/101/22 37/102/22 36/103/22 35/104/22 34/105/22 33/106/22 32/107/22 31/108/22
